<svg width="180" height="180" viewBox="0 0 180 180" fill="none" xmlns="http://www.w3.org/2000/svg">
  <style>
    @media (prefers-color-scheme: light) {
      .background { fill: black; }
      .foreground { fill: white; }
    }
    @media (prefers-color-scheme: dark) {
      .background { fill: white; }
      .foreground { fill: black; }
    }
  </style>
  <g clip-path="url(#clip0_7960_43945)">
    <rect class="background" width="180" height="180" rx="37" />
    <g transform="scale(11.999951172073681) translate(0.0003870328267421286, 0.00045235951742128577)">
      <g fill="#000000">
        <g xmlns="http://www.w3.org/2000/svg">
          <path class="foreground" d="M95,12.611c0-0.539-0.214-1.058-0.601-1.445l-5.566-5.566c-0.804-0.794-2.086-0.794-2.88,0l-3.266,3.256L81.71,7.879   c-0.57-0.58-1.353-0.895-2.157-0.895c-0.814,0-1.588,0.315-2.157,0.895l-12.16,12.16H27.166V9.12c0-1.689-1.363-3.053-3.053-3.053   c-1.689,0-3.053,1.364-3.053,3.053v10.919H10.142c-1.689,0-3.053,1.364-3.053,3.053c0,1.689,1.363,3.053,3.053,3.053h10.919v38.069   l-5.352,5.363l-0.204,0.193c-0.295,0.295-0.529,0.641-0.682,1.007L5.298,90.62c-0.56,1.17-0.316,2.564,0.6,3.48   c0.58,0.59,1.363,0.895,2.157,0.895c0.448,0,0.895-0.102,1.323-0.295l20.016-9.606c0.306-0.153,0.59-0.346,0.835-0.6l5.566-5.566   h38.048v10.919c0,1.689,1.374,3.053,3.053,3.053c1.689,0,3.053-1.364,3.053-3.053V78.928h10.919c1.689,0,3.053-1.364,3.053-3.053   c0-1.689-1.363-3.053-3.053-3.053H79.95V34.774L92.12,22.604c1.191-1.191,1.191-3.124,0-4.315l-0.977-0.977l3.256-3.266   C94.786,13.669,95,13.15,95,12.611z M27.166,26.145h31.963L27.166,58.108V26.145z M14.568,85.43l4.447-9.27l4.834,4.823   L14.568,85.43z M41.901,72.822L73.844,40.88v31.943H41.901z M74.739,31.355L32.59,73.514c-0.071,0.071-0.143,0.132-0.214,0.204   l-5.017,5.027l-6.095-6.095l47.39-47.4l10.899-10.899l6.096,6.095L74.739,31.355z M88.558,14.127l-2.687-2.697l1.516-1.516   l2.697,2.697L88.558,14.127z"/>
        </g>
      </g>
    </g>
  </g>
  <defs>
    <clipPath id="clip0_7960_43945">
      <rect width="180" height="180" fill="white" />
    </clipPath>
  </defs>
</svg>